<svg xmlns="http://www.w3.org/2000/svg" id="Cricket" viewBox="0 0 1000 1000">
  <path d="M205.63,939C125.88,939,61,874.12,61,794.37s64.88-144.62,144.63-144.62,144.62,64.88,144.62,144.62S285.38,939,205.63,939Zm0-261.25A116.63,116.63,0,1,0,322.25,794.37,116.75,116.75,0,0,0,205.63,677.75Z" fill="#968dea" class="color000000 svgShape"></path>
  <path d="M297.09 901.63a14 14 0 0 1-6.28-1.5 118.78 118.78 0 0 1-49.35-46.58 117.2 117.2 0 0 1-14.07-38.65 119.34 119.34 0 0 1 0-41.07 118.59 118.59 0 0 1 63.42-85.21 14 14 0 1 1 12.58 25 90.94 90.94 0 0 0-37.7 35.58A89.51 89.51 0 0 0 255 778.67a91.3 91.3 0 0 0 0 31.4 90.2 90.2 0 0 0 30.91 53.5 90.76 90.76 0 0 0 17.52 11.55 14 14 0 0 1-6.31 26.51ZM114.17 901.63a14 14 0 0 1-6.31-26.51 90.74 90.74 0 0 0 37.7-35.59 89.32 89.32 0 0 0 10.72-29.45 91.36 91.36 0 0 0 0-31.41 89.16 89.16 0 0 0-10.72-29.45 90.92 90.92 0 0 0-37.7-35.59 14 14 0 0 1 12.59-25A118.94 118.94 0 0 1 169.8 735.2a117.13 117.13 0 0 1 14.06 38.64 119.34 119.34 0 0 1 0 41.07 117.21 117.21 0 0 1-14.06 38.64 118.94 118.94 0 0 1-49.35 46.58A14 14 0 0 1 114.17 901.63ZM288.73 360.78a14 14 0 0 1-9.9-4.1L121.25 199.1H109.84a14 14 0 0 1-9.9-4.11L65.1 160.15a14 14 0 0 1 0-19.8L140.35 65.1a14 14 0 0 1 19.8 0L195 99.94a14 14 0 0 1 4.1 9.9v11.41L356.68 278.83a14 14 0 0 1 0 19.8l-58.05 58.05A14 14 0 0 1 288.73 360.78ZM115.64 171.1h11.41a14 14 0 0 1 9.9 4.1L288.73 327 327 288.73 175.2 137a14 14 0 0 1-4.1-9.9V115.64L150.25 94.8 94.8 150.25Z" fill="#968dea" class="color000000 svgShape"></path>
  <path d="M469.75,483.75a14,14,0,0,1-7.87-2.42l-181-123a14,14,0,0,1-2-21.48l58.05-58.05a14,14,0,0,1,21.48,2l123,181a14,14,0,0,1-11.58,21.87Zm-159.15-139L417,417,344.71,310.6Z" fill="#968dea" class="color000000 svgShape"></path>
  <path d="M784.87 939a46.31 46.31 0 0 1-32.74-13.57L254.73 428a14 14 0 0 1-3.36-14.38l24.1-71.35a14 14 0 0 1 3.36-5.42l58.05-58.05a14 14 0 0 1 5.42-3.36l71.35-24.09A14 14 0 0 1 428 254.74l497.4 497.39A46.18 46.18 0 0 1 936 801.06C911.4 866 866 911.4 801.06 936A45.7 45.7 0 0 1 784.87 939ZM280.68 414.38 771.93 905.62a18.14 18.14 0 0 0 19.2 4.23c57.91-22 96.75-60.8 118.72-118.72a18.14 18.14 0 0 0-4.23-19.2L414.37 280.68l-60 20.27L301 354.36ZM127.05 199.1a14 14 0 0 1-9.9-23.9l58-58A14 14 0 1 1 195 137L137 195A13.94 13.94 0 0 1 127.05 199.1ZM167.47 239.52a14 14 0 0 1-9.9-23.9l58.05-58.05a14 14 0 0 1 19.8 19.8l-58 58A14 14 0 0 1 167.47 239.52ZM207.89 279.94A14 14 0 0 1 198 256L256 198a14 14 0 1 1 19.8 19.8l-58 58A14 14 0 0 1 207.89 279.94ZM248.31 320.36a14 14 0 0 1-9.9-23.9l58-58a14 14 0 1 1 19.8 19.8l-58.05 58.05A14 14 0 0 1 248.31 320.36Z" fill="#968dea" class="color000000 svgShape"></path>
  <path d="M762,929.52a14,14,0,0,1-9.9-23.9L905.62,752.13a14,14,0,0,1,19.8,19.8L771.93,925.42A14,14,0,0,1,762,929.52Z" fill="#968dea" class="color000000 svgShape"></path>
</svg>
