<svg xmlns="http://www.w3.org/2000/svg" viewBox="0 0 512 512" id="disco-ball">
  <path d="M257.7 494.098C243.526 495.332 220.747 491.67 207.104 488.413C124.794 468.762 62.3421 400.103 51.2482 316.082C50.7534 312.335 50.1944 308.521 49.9646 304.75L49.779 289.921C49.7673 268.191 53.7966 248.686 60.7248 228C79.9676 170.545 123.675 124.721 180.348 102.957C191.888 98.5258 204.005 94.8273 216.29 93.2248L216.242 82.0783C216.269 58.9203 228.19 57.1943 248.149 57.2364C248.65 56.0023 248.28 53.0935 248.279 51.6972L248.286 34.6923C248.294 27.3075 246.364 19.9548 254.604 16.7929L255.625 16.7083C264.972 16.2954 263.715 27.6355 263.719 33.844L263.702 57.2316C282.563 57.1896 295.558 58.2783 295.675 81.0238L295.71 92.4418C296.876 92.9355 298.069 93.0092 299.294 93.2549L304.75 94.4612C385.574 112.977 448.295 181.485 460.249 263.513C461.233 270.271 462.162 277.025 462.242 283.865L462.165 299.917C456.692 408.353 366.992 492.824 257.7 494.098ZM89.5504 199.956L89.7667 199.734C90.4605 199.502 91.0369 198.938 91.6227 198.504L105.751 189.835C121.134 181.513 142.955 172.987 160.348 169.371C164.824 152.211 177.602 127.909 189.716 115.904L177.68 120.844C146.143 134.776 121.327 155.192 100.946 183.106L93.4384 194.155C92.2392 195.942 90.6382 197.773 89.7667 199.734L89.5504 199.956ZM421.725 199.731L421.941 199.954L421.725 199.731C421.028 198.098 419.904 196.655 418.964 195.151L412.699 185.502C392.319 155.525 363.159 131.998 329.462 118.495L321.583 115.55C333.434 127.348 348.475 153.192 352.04 170.287C367.351 171.908 394.651 182.767 408.065 190.523L419.394 198.151C420.065 198.654 420.934 199.482 421.725 199.731ZM89.2862 381.74C90.6142 384.981 92.8556 388.301 94.7949 391.202L103.7 403.605C125.895 431.918 150.722 450.746 184.322 464.826C186.186 465.607 188.781 467.045 190.713 467.244L190.968 467.448L190.713 467.244C180.424 455.935 173.2 443.34 167.068 429.304L161.625 415.986C161.41 415.397 160.519 412.264 160.232 412.035C160.135 411.957 151.712 410.072 150.945 409.848C131.392 404.137 109.275 397.761 93.1606 384.789C91.8918 383.768 90.6901 382.562 89.2862 381.74L89.0614 381.501L89.2862 381.74ZM233.261 73.3716L232.335 73.5541C231.735 75.2072 231.83 77.415 231.799 79.1632L231.778 90.1395L273.875 90.106C275.616 90.1364 277.313 90.3474 279.052 90.1635L279.963 80.2218C279.941 78.2129 280.097 75.2029 279.144 73.3976L233.261 73.3716ZM247.584 106.116C228.355 107.432 209.731 116.422 197.346 130.699C189.042 140.271 183.944 151.817 179.067 163.375L180.316 163.435C193.977 160.651 207.524 158.139 221.414 156.749L245.118 155.222C246.103 155.209 247.323 155.351 248.263 155.064L248.294 106.125C248.249 106.123 247.602 106.101 247.584 106.116ZM263.555 106.119L263.733 155.061L289.125 156.311C304.056 157.63 318.602 160.531 333.219 163.741C327.809 149.529 319.51 133.698 307.978 123.665C296.397 113.589 278.893 106.315 263.555 106.119ZM241.287 170.799C222.562 171.794 190.441 175.058 172.481 181.688C171.739 183.405 171.301 185.263 170.752 187.05L167.584 198.226C159.985 227.384 156.638 257.629 156.334 287.718L163.954 287.716L248.298 287.733L248.229 170.732L241.287 170.799ZM263.701 170.766L263.704 279.41C263.703 281.91 263.287 285.341 263.823 287.738L345.491 287.669C348.615 287.646 352.033 287.335 355.125 287.716C356.065 285.961 355.402 276.73 355.293 274.685L354.902 262.75C353.17 238.186 348.299 204.366 339.831 181.467C333.095 178.91 325.578 177.724 318.51 176.463L283.477 171.793C276.846 171.222 270.374 170.658 263.701 170.766ZM357.659 187.287C360.649 198.448 363.382 209.666 365.359 221.056L371.284 274.683L371.432 287.693L446.618 287.716C446.014 233.544 424.654 210.678 372.964 192.099C367.978 190.307 362.842 188.395 357.659 187.287ZM153.192 187.875C127.741 194.596 91.0617 211.064 77.0149 235.234C68.111 250.555 65.2417 269.744 65.5316 287.25C65.925 287.555 65.7383 287.523 66.0256 287.531L140.775 287.62L141.063 267.195L147.951 215.23C148.56 212.04 154.064 187.901 154.001 187.806L153.192 187.875ZM66.8549 303.288L65.8459 303.527C65.4673 305.959 66.1484 309.403 66.3863 311.875C71.2226 362.117 107.998 382.269 153.736 394.46L154.377 394.625C154.788 393.865 153.977 391.625 153.719 390.762C147.093 368.554 139.801 327.492 141.042 303.384L66.8549 303.288ZM164.961 303.288L156.724 303.352C156.861 326.217 159.723 349.329 164.738 371.645L172.616 399.7C181.946 402.575 191.6 404.164 201.25 405.517L227.075 408.385L241.211 408.754C243.495 409.039 246.034 409.299 248.287 409.022L248.274 303.407L164.961 303.288ZM263.68 303.288L263.868 408.526C265.686 409.072 268.84 408.641 270.853 408.635L285.795 408.412C297.105 407.747 332.04 403.776 339.954 399.383C340.238 399.225 341.295 395.038 341.481 394.43C350.21 365.331 355.157 333.82 355.558 303.397L263.68 303.288ZM371.255 303.288L370.592 316.527C369.397 332.558 367.808 348.786 364.794 364.581L358.332 392.166C358.143 392.827 357.527 394.326 357.67 394.918C376.39 389.329 393.755 383.007 410.119 372.104C428.307 359.509 439.907 345.561 444.016 323L446.315 303.395L371.255 303.288ZM422.346 381.625C407.499 394.502 389.611 401.321 371.003 407.117C364.807 409.046 358.146 411.161 351.654 411.585C347.402 426.932 334.222 452.818 323.948 463.638C322.557 465.102 320.962 466.491 319.689 468.051C361.967 452.826 401.321 422.241 422.443 382.008L422.346 381.625ZM179.062 417.683C182.178 424.96 185.18 432.192 189.125 439.079C201.866 461.318 222.617 476.21 248.233 478.323L248.279 424.398L218.285 423.243C205.129 422.187 192.061 419.904 179.062 417.683ZM331.759 417.821L297.562 422.917C294.396 423.379 291.055 423.391 287.859 423.569L274.125 424.228C270.803 424.278 266.981 423.889 263.729 424.418L263.712 466.909C263.714 468.885 263.321 477.206 263.946 478.23L264.194 478.184C302.983 473.412 318.968 450.267 332.956 418L331.759 417.821Z" fill="#ffffff" class="color000000 svgShape"></path>
</svg>
