<svg xmlns="http://www.w3.org/2000/svg" viewBox="0 0 64 64" id="Guitar">
  <path d="M22.075,64h0a14.2,14.2,0,0,0,10.189-4.007,14.332,14.332,0,0,0,3.983-10.671,5.077,5.077,0,0,1,3.034-4.8,9.625,9.625,0,0,0,2.912-2c2.79-2.8,3.655-7.13,2.313-11.572a1,1,0,1,0-1.914.578c1.125,3.726.446,7.309-1.815,9.582A7.653,7.653,0,0,1,38.468,42.7a7.144,7.144,0,0,0-4.216,6.673,12.35,12.35,0,0,1-3.4,9.21A12.059,12.059,0,0,1,22.08,62h0A20.028,20.028,0,0,1,8.206,55.771C1.185,48.737-.068,38.544,5.414,33.049a12.348,12.348,0,0,1,9.38-3.41,7.138,7.138,0,0,0,6.7-4.19,7.449,7.449,0,0,1,1.511-2.172c2.267-2.28,5.848-2.958,9.576-1.814a1,1,0,1,0,.586-1.912c-4.447-1.364-8.779-.5-11.578,2.314a9.4,9.4,0,0,0-1.908,2.741,5.1,5.1,0,0,1-4.814,3.034A14.282,14.282,0,0,0,4,31.638c-6.258,6.273-5,17.733,2.793,25.546A22.031,22.031,0,0,0,22.075,64Z" fill="#dfdf64" class="color000000 svgShape"></path>
  <path d="M11.1 46.077a1 1 0 0 1 1.409.006l.558.559a1 1 0 0 0 1.415-1.414l-.552-.552a2.961 2.961 0 0 0-2.127-.888h0a2.954 2.954 0 0 0-2.122.881l-.537.538a3 3 0 0 0 0 4.227L14.7 55.028a3.008 3.008 0 0 0 4.256 0l.536-.536a3.017 3.017 0 0 0-.006-4.237L17.3 48.063a1 1 0 1 0-1.414 1.415l2.191 2.192a1.009 1.009 0 0 1 0 1.414l-.53.53a1.035 1.035 0 0 1-1.426 0l-5.567-5.595a1 1 0 0 1 0-1.4zM62.733 11.107l.136-.136a3.392 3.392 0 0 0 0-4.781L57.833 1.137a3.369 3.369 0 0 0-4.773 0l-.132.132L51.957.3a1 1 0 1 0-1.416 1.413l.975.978L49.57 4.638l-.97-.974a1 1 0 0 0-1.416 1.412l1.1 1.105-2.9 4.373a1 1 0 0 0 .125 1.259l.134.135L25.891 31.762a8.132 8.132 0 1 0 2.5 15.062 1 1 0 1 0-.992-1.736 6.111 6.111 0 0 1-7.337-1 6.136 6.136 0 0 1 5.915-10.277A6.025 6.025 0 0 1 28.719 35.4 6.231 6.231 0 0 1 29.8 42.626a1 1 0 1 0 1.769.932 8.094 8.094 0 0 0 .787-5.335S46.069 24.455 46.079 24.449a1 1 0 0 0 0-1.415l-4.334-4.349 5.3-5.317 3.63 3.64-3.186 3.2a1 1 0 0 0 1.416 1.412l3.184-3.195.129.129a1 1 0 0 0 1.263.125l4.353-2.912 1.1 1.1a1.014 1.014 0 0 0 1.414 0 1 1 0 0 0 0-1.414l-.976-.979 1.946-1.952.972.974a1.029 1.029 0 0 0 1.414 0 1 1 0 0 0 0-1.414zM28.008 32.471L33.62 26.84l3.627 3.638L31.64 36.107a7.833 7.833 0 0 0-3.632-3.636zM43.96 23.738l-5.3 5.323-3.626-3.638 5.3-5.321zm9.1-7.182L47.5 10.98l2.851-4.29 3.285-3.3h0l.842-.844a1.358 1.358 0 0 1 .969-.4h0a1.365 1.365 0 0 1 .971.4L61.453 7.6a1.39 1.39 0 0 1 0 1.957l-.837.84h0l-3.29 3.3z" fill="#dfdf64" class="color000000 svgShape"></path>
</svg>
