<svg xmlns="http://www.w3.org/2000/svg" xmlns:xlink="http://www.w3.org/1999/xlink" width="1080" zoomAndPan="magnify" viewBox="0 0 810 809.999993" height="1080" preserveAspectRatio="xMidYMid meet" version="1.0"><path fill="#ffffff" d="M 684.589844 348.175781 L 664.101562 348.175781 C 660.015625 348.175781 657.027344 351.996094 657.953125 355.976562 C 661.597656 371.730469 663.527344 388.128906 663.527344 404.984375 C 663.527344 425.097656 660.777344 444.5625 655.65625 463.046875 C 654.542969 467.050781 657.613281 471.011719 661.773438 471.011719 L 682.457031 471.011719 C 685.363281 471.011719 687.890625 469.03125 688.605469 466.210938 C 693.550781 446.625 696.183594 426.117188 696.183594 404.996094 C 696.183594 387.242188 694.320312 369.929688 690.796875 353.226562 C 690.175781 350.296875 687.597656 348.1875 684.601562 348.1875 Z M 684.589844 348.175781 " fill-opacity="1" fill-rule="nonzero"/><path fill="#ffffff" d="M 68.265625 464.242188 C 65.113281 452.84375 62.839844 441.085938 61.550781 429.019531 C 80.667969 428.632812 99.597656 428.433594 99.75 428.433594 C 102.230469 428.1875 103.285156 427.050781 102.910156 425.003906 C 101.480469 418.398438 99.667969 411.71875 97.488281 404.984375 C 96.550781 402.457031 95.003906 401.191406 92.835938 401.191406 C 91.269531 401.191406 87.167969 401.320312 80.539062 401.554688 C 78.476562 401.625 70.40625 401.695312 60.277344 401.753906 C 60.382812 394.304688 60.847656 386.949219 61.679688 379.695312 C 67.304688 379.589844 71.132812 379.542969 71.601562 379.542969 C 72.445312 379.542969 83.503906 378.890625 104.796875 377.566406 C 105.757812 377.566406 106.53125 377.203125 107.128906 376.476562 C 107.714844 375.761719 107.925781 374.917969 107.75 373.957031 C 105.347656 362.65625 103.660156 355.675781 102.699219 353.039062 C 101.925781 350.753906 100.296875 349.429688 97.828125 349.066406 C 94.230469 348.457031 88.832031 348.164062 81.617188 348.164062 C 74.953125 348.164062 68.789062 348.339844 63.121094 348.691406 C 62.429688 348.351562 61.65625 348.164062 60.824219 348.164062 L 41.394531 348.164062 C 38.898438 348.164062 36.722656 349.898438 36.195312 352.347656 C 32.597656 369.332031 30.699219 386.9375 30.699219 404.984375 C 30.699219 426.398438 33.382812 447.175781 38.394531 467.027344 C 38.992188 469.371094 41.125 471.011719 43.550781 471.011719 L 63.144531 471.011719 C 66.683594 471.011719 69.210938 467.648438 68.265625 464.242188 Z M 68.265625 464.242188 " fill-opacity="1" fill-rule="nonzero"/><path fill="#ffffff" d="M 142.40625 392.722656 L 142.289062 391.09375 C 142.007812 389.535156 141.257812 388.386719 140.039062 387.660156 C 138.15625 386.585938 134.078125 384.957031 127.800781 382.789062 C 121.511719 380.621094 117.585938 379.542969 116.027344 379.542969 C 114.109375 379.542969 113.019531 380.503906 112.761719 382.425781 C 111.25 389.40625 110.242188 398.753906 109.714844 410.480469 C 109.1875 422.203125 109.84375 433.121094 111.671875 443.214844 C 112.84375 449.707031 116.964844 455.996094 124.015625 462.0625 C 131.070312 468.140625 137.300781 471.175781 142.710938 471.175781 C 149.445312 471.175781 154.90625 465.460938 159.085938 454.039062 C 159.320312 453.3125 159.613281 452.960938 159.976562 452.960938 C 160.339844 452.960938 160.738281 453.5 161.171875 454.589844 L 163.351562 461.628906 C 164.191406 464.277344 165.890625 466.023438 168.445312 466.863281 C 176.140625 469.511719 182.148438 470.835938 186.484375 470.835938 C 187.441406 470.835938 188.167969 470.507812 188.648438 469.839844 C 189.128906 469.183594 189.292969 468.421875 189.140625 467.589844 C 187.746094 458.570312 186.824219 446.671875 186.378906 431.878906 C 185.921875 417.085938 186.402344 403.261719 187.792969 390.390625 L 187.792969 389.3125 C 187.40625 387.265625 186.460938 386.011719 184.925781 385.53125 C 182.183594 384.335938 177.816406 382.941406 171.816406 381.382812 C 165.820312 379.824219 162.167969 379.042969 160.84375 379.042969 C 158.792969 379.042969 157.597656 380.058594 157.246094 382.109375 C 154.964844 396.058594 154.214844 410.855469 155 426.480469 C 154.871094 429.722656 153.347656 433.003906 150.464844 436.304688 C 147.574219 439.609375 145.054688 441.273438 142.886719 441.273438 C 142.042969 441.273438 141.410156 440.066406 140.976562 437.664062 C 140.191406 433.332031 140.027344 426.304688 140.496094 416.558594 C 140.953125 406.8125 141.597656 398.882812 142.417969 392.746094 Z M 142.40625 392.722656 " fill-opacity="1" fill-rule="nonzero"/><path fill="#ffffff" d="M 227.675781 370.949219 L 202.929688 370.949219 C 200.902344 370.949219 199.167969 372.445312 198.921875 374.472656 C 197.691406 384.476562 197.046875 394.65625 197.046875 404.984375 C 197.046875 426.761719 199.847656 447.878906 205.082031 468 C 205.550781 469.78125 207.167969 471.011719 208.996094 471.011719 L 234.484375 471.011719 C 237.164062 471.011719 239.109375 468.433594 238.347656 465.859375 C 233.382812 448.816406 230.441406 430.90625 229.820312 412.421875 C 230.898438 410.925781 232.222656 409.542969 233.804688 408.265625 C 235.746094 406.695312 237.152344 405.863281 237.984375 405.78125 C 238.945312 405.699219 239.824219 407.058594 240.609375 409.882812 C 242.460938 416.476562 243.96875 431.914062 245.140625 456.207031 L 245.363281 457.636719 C 245.796875 459.15625 246.933594 460.375 248.785156 461.289062 C 250.914062 462.296875 255.003906 463.503906 261.058594 464.921875 C 267.101562 466.339844 271.214844 466.945312 273.371094 466.746094 C 275.394531 466.546875 276.496094 465.414062 276.648438 463.351562 C 276.390625 453.230469 275.570312 440.59375 274.203125 425.4375 C 272.832031 410.292969 271.554688 400.59375 270.371094 396.363281 C 269.140625 392.007812 265.101562 387.566406 258.238281 383.023438 C 251.359375 378.480469 245.714844 376.417969 241.289062 376.839844 C 237.292969 377.226562 233.757812 379.625 230.699219 384.042969 C 230.96875 381.171875 231.296875 378.328125 231.683594 375.492188 C 232.011719 373.078125 230.113281 370.949219 227.675781 370.949219 Z M 227.675781 370.949219 " fill-opacity="1" fill-rule="nonzero"/><path fill="#ffffff" d="M 376.914062 471.1875 C 386.890625 471.1875 396.53125 465.953125 405.820312 455.492188 C 406.710938 454.414062 407.015625 453.148438 406.757812 451.707031 C 406.6875 451.34375 406.453125 450.6875 406.042969 449.730469 C 404.378906 445.886719 401.566406 440.289062 397.597656 432.957031 C 397.023438 431.75 396.003906 431.152344 394.5625 431.152344 C 393.601562 431.152344 392.867188 431.398438 392.351562 431.878906 C 383.976562 438.132812 376.667969 441.261719 370.421875 441.261719 C 366.453125 441.261719 362.914062 439.632812 359.800781 436.386719 C 356.683594 433.144531 354.527344 428.210938 353.335938 421.59375 C 351.425781 411.019531 352.175781 400.558594 355.59375 390.203125 C 359.015625 379.859375 363.183594 374.695312 368.117188 374.695312 C 371.242188 374.695312 373.292969 377.402344 374.277344 382.8125 C 374.664062 384.980469 374.769531 388.222656 374.59375 392.558594 C 374.417969 396.890625 374.335938 399.117188 374.359375 399.234375 C 374.617188 400.675781 375.589844 401.402344 377.273438 401.402344 C 387.253906 401.402344 394.492188 401.226562 399.003906 400.863281 C 401.144531 400.746094 402.410156 399.785156 402.808594 397.980469 C 404.964844 389.921875 405.515625 383.011719 404.472656 377.238281 C 403.640625 372.667969 400.058594 368.101562 393.695312 363.535156 C 387.335938 358.964844 380.742188 355.417969 373.914062 352.886719 C 367.085938 350.355469 361.859375 349.089844 358.253906 349.089844 C 348.871094 349.089844 340.976562 352.96875 334.570312 360.722656 C 328.152344 368.476562 323.957031 377.976562 321.953125 389.21875 C 319.964844 400.464844 320 411.800781 322.058594 423.222656 C 324.519531 436.808594 328.960938 446.730469 335.378906 452.984375 C 340.953125 458.511719 347.699219 462.941406 355.628906 466.246094 C 363.558594 469.558594 370.65625 471.210938 376.914062 471.210938 Z M 376.914062 471.1875 " fill-opacity="1" fill-rule="nonzero"/><path fill="#ffffff" d="M 497.519531 471.011719 L 524.578125 471.011719 C 525.960938 471.011719 527.167969 470.085938 527.519531 468.75 C 531.828125 452.199219 534.476562 434.980469 535.320312 417.296875 C 535.914062 416.113281 536.816406 415.351562 538.058594 415.023438 C 539.476562 414.613281 546.585938 412.914062 559.386719 409.917969 C 561.847656 409.238281 562.878906 407.808594 562.492188 405.628906 C 561.378906 395.695312 560.066406 386.585938 558.570312 378.28125 L 557.832031 374.191406 C 557.117188 371.742188 555.535156 370.515625 553.085938 370.515625 C 550.359375 370.515625 547.394531 371.941406 544.160156 374.800781 C 540.929688 377.660156 538.222656 381.265625 536.019531 385.625 L 534.957031 386.492188 C 534.640625 382.15625 534.242188 377.847656 533.703125 373.582031 C 533.515625 372.070312 532.214844 370.9375 530.691406 370.9375 L 504.335938 370.9375 C 502.5 370.9375 501.09375 372.5625 501.351562 374.390625 C 502.734375 384.394531 503.472656 394.597656 503.472656 404.972656 C 503.472656 426.539062 500.378906 447.386719 494.628906 467.097656 C 494.054688 469.042969 495.496094 471 497.519531 471 Z M 497.519531 471.011719 " fill-opacity="1" fill-rule="nonzero"/><path fill="#ffffff" d="M 614.171875 419.0625 C 614.5 420.867188 615.644531 421.886719 617.613281 422.132812 C 625.308594 422.132812 630.8125 422.015625 634.140625 421.769531 C 636.425781 421.769531 637.84375 420.632812 638.394531 418.339844 C 640.792969 412.328125 641.589844 407.09375 640.78125 402.644531 C 640.125 399.035156 637.808594 395.542969 633.835938 392.183594 C 629.855469 388.820312 625.4375 386.140625 620.566406 384.160156 C 615.691406 382.179688 611.207031 380.609375 607.09375 379.472656 C 602.984375 378.339844 600.136719 377.765625 598.582031 377.765625 C 591.84375 377.765625 586.152344 380.714844 581.515625 386.609375 C 576.863281 392.5 573.785156 399.5625 572.273438 407.796875 C 570.761719 416.03125 570.714844 424.125 572.15625 432.054688 C 573.960938 442.035156 577.167969 449.496094 581.796875 454.425781 C 586.597656 459.71875 592.417969 463.808594 599.257812 466.6875 C 606.101562 469.570312 612.460938 471.023438 618.351562 471.023438 C 622.683594 471.023438 627.066406 469.851562 631.515625 467.507812 C 635.96875 465.167969 639.152344 462.730469 641.109375 460.199219 C 642.1875 458.875 642.527344 457.074219 642.117188 454.789062 C 641.941406 453.828125 640.992188 451.542969 639.246094 447.9375 C 637.515625 444.328125 636.15625 441.800781 635.171875 440.359375 C 634.304688 438.917969 633.15625 438.191406 631.714844 438.191406 C 631.46875 438.191406 629.128906 439.035156 624.6875 440.722656 C 620.238281 442.410156 616.335938 443.25 612.976562 443.25 C 609.964844 443.25 607.644531 442.386719 606.007812 440.640625 C 604.367188 438.894531 603.195312 436.09375 602.503906 432.253906 C 601.414062 426.246094 601.8125 419.472656 603.699219 411.953125 C 605.585938 404.433594 607.902344 400.675781 610.679688 400.675781 C 612.367188 400.675781 613.503906 402.304688 614.089844 405.546875 C 614.347656 406.988281 614.417969 409.542969 614.300781 413.21875 C 614.183594 416.886719 614.148438 418.84375 614.183594 419.074219 Z M 614.171875 419.0625 " fill-opacity="1" fill-rule="nonzero"/><path fill="#ffffff" d="M 433.425781 373.523438 C 417.894531 380.785156 411.207031 399.269531 418.46875 414.789062 L 443.898438 469.136719 C 444.964844 471.398438 448.1875 471.398438 449.238281 469.136719 L 474.679688 414.789062 C 486.757812 388.761719 459.839844 361.308594 433.414062 373.523438 Z M 458.035156 401.566406 C 458.035156 407.878906 452.917969 413.007812 446.59375 413.007812 C 440.269531 413.007812 435.148438 407.890625 435.148438 401.566406 C 435.148438 395.238281 440.28125 390.121094 446.59375 390.121094 C 452.90625 390.121094 458.035156 395.238281 458.035156 401.566406 Z M 458.035156 401.566406 " fill-opacity="1" fill-rule="nonzero"/><path fill="#ffffff" d="M 775.925781 448.910156 C 775.386719 447.960938 774.71875 446.777344 773.96875 445.359375 C 772.953125 443.425781 770.585938 442.585938 768.617188 443.507812 C 764.730469 445.335938 758.238281 447.445312 750.355469 446.203125 C 740.144531 444.597656 733.992188 438.390625 732.214844 436.457031 C 734.332031 437.476562 737.507812 438.789062 741.511719 439.632812 C 746.082031 440.59375 758.671875 443.238281 768.265625 435.777344 C 775.140625 430.425781 777.050781 422.53125 778.234375 417.671875 C 779.054688 414.308594 779.792969 410.421875 778.902344 405.523438 C 778.070312 400.957031 775.421875 396.632812 770.960938 392.546875 C 767.644531 389.535156 761.953125 386.316406 753.882812 382.894531 C 745.800781 379.460938 739.242188 377.753906 734.191406 377.753906 C 727.339844 377.753906 721.636719 380.972656 717.09375 387.402344 C 712.535156 393.835938 709.65625 401.144531 708.425781 409.320312 C 707.207031 417.496094 707.21875 425.074219 708.484375 432.042969 C 710.285156 442.035156 713.496094 449.484375 718.121094 454.414062 C 719.386719 455.808594 720.734375 457.132812 722.152344 458.363281 C 723.453125 459.484375 728.546875 463.796875 735.667969 466.675781 C 747.839844 471.597656 760.59375 470.238281 767.5625 467.484375 C 767.5625 467.484375 773.335938 465.179688 777.425781 460.1875 C 778.515625 458.863281 778.890625 457.296875 778.5625 455.492188 C 778.035156 452.597656 776.382812 449.707031 775.925781 448.910156 Z M 741.5 406.15625 C 743.339844 401.050781 745.402344 398.496094 747.6875 398.496094 C 749.96875 398.496094 751.234375 400.183594 751.84375 403.542969 C 752.5 407.152344 751.808594 410.667969 749.78125 414.097656 C 747.757812 417.53125 745.003906 419.238281 741.511719 419.238281 C 740.320312 419.238281 739.582031 418.515625 739.324219 417.074219 C 738.9375 414.90625 739.652344 411.273438 741.5 406.15625 Z M 735.679688 428.691406 C 731.628906 432.910156 729.214844 437.324219 727.972656 443.039062 C 723.816406 437.5 728.769531 428.28125 735.679688 428.691406 Z M 735.679688 428.691406 " fill-opacity="1" fill-rule="nonzero"/></svg>